<?xml version="1.0" encoding="utf-8"?>
<!-- Generator: Adobe Illustrator 26.3.1, SVG Export Plug-In . SVG Version: 6.00 Build 0)  -->
<svg version="1.1" id="Capa_1" xmlns="http://www.w3.org/2000/svg" xmlns:xlink="http://www.w3.org/1999/xlink" x="0px" y="0px"
	 viewBox="0 0 70 72" style="enable-background:new 0 0 70 72;" xml:space="preserve">
<style type="text/css">
	.st0{fill:#7064A9;}
</style>
<g>
	<path class="st0" d="M50.9,16.9c-2.8-3.5-6.7-6.4-11.2-7.5c-3.8-1-7.8-0.6-11.4,0.9c-3.1,1.3-5.8,3.5-8,6
		C15.5,22.1,13,29.6,12.8,37c-0.1,0.8-0.1,1.6,0,2.5c0.2,6.4,2,12.8,5.6,18.1c-1.2-2.6-2.1-5.4-2.5-8.2c0.7-0.5,1.5-1,2.2-1.4
		c-0.4-3.8,0.8-7.7,3.1-10.7c3.4-4.5,9.1-7,14.8-6.9c4.7,0.2,9.4,2.2,12.6,5.6c2.4,2.6,4,6,4.2,9.6c0.2,1-0.1,2.1-0.1,3.1
		c0.8,0.5,1.5,1.1,2.3,1.6c-0.4,2.3-1.2,4.4-2,6.6c3.3-5.4,5-11.7,5.1-18.1C58,31,55.8,23.1,50.9,16.9 M41.1,30.6
		c-4.4-1.5-9.4-1.2-13.7,0.9c-0.1-0.1-0.3-0.2-0.4-0.3c2.3-2,5.1-3.9,8.3-4c2.8,0.1,5.3,1.6,7.4,3.2c0.3,0.3,0.8,0.5,0.8,1
		C42.7,31.3,41.9,30.8,41.1,30.6 M37.8,26.9c-1.6-0.5-3.3-0.5-4.9,0c0.1-1.4,0.7-3.1,2.2-3.5v-6.8h0.5v6.8
		C37.1,23.8,37.7,25.4,37.8,26.9 M38.9,13.7c-3.3-0.6-6.7-0.4-9.8,0.7c-2.4,0.8-4.7,2.1-6.9,3.3c2.9-3.2,6.9-5.6,11.3-6.2
		c3.2-0.5,6.5,0.4,9.3,1.9c2.1,1.1,4.1,2.6,5.7,4.4C45.6,15.8,42.4,14.3,38.9,13.7"/>
	<path class="st0" d="M24.4,37.9c0.7-0.2,1.6,0.5,1.3,1.3c-0.6,1.9-1.2,3.8-1.4,5.8c-2,0.8-4,1.7-5.8,2.8c0-2.1,0.6-4.1,1.4-6
		c0.3-0.7,0.6-1.5,1.2-2.1C22,38.8,23.1,38.1,24.4,37.9"/>
	<path class="st0" d="M44.9,38.3c0.2-0.4,0.7-0.5,1.1-0.5c1.3,0.2,2.5,0.9,3.5,1.8c0.7,0.8,1.1,1.8,1.5,2.8c0.7,1.9,1.2,3.9,1.1,6
		c-1.8-1.2-3.7-2.2-5.7-3c-0.3-1.9-0.7-3.8-1.3-5.6C44.9,39.3,44.7,38.8,44.9,38.3"/>
	<path class="st0" d="M32.8,46.3c5.2-0.7,10.4,1.3,14.5,4.5c1,0.9,2.1,1.7,2.9,2.8c-3-2.1-6.3-3.8-9.9-4.6c-2.5-0.6-5-0.8-7.6-0.6
		c-4.3,0.4-8.3,2.2-12.1,4.2C23.8,49.2,28.1,46.9,32.8,46.3"/>
	<path class="st0" d="M32.2,52.7c2.6-0.6,5.3-0.4,7.8,0.6c2.8,1,5.4,2.8,7.3,5c-2.5-1.7-5.3-3.2-8.4-3.8c-1.9-0.4-3.9-0.6-5.9-0.3
		c-3.4,0.4-6.5,1.8-9.5,3.3C25.9,55.1,28.9,53.4,32.2,52.7"/>
	<path class="st0" d="M25.9,62.1c2.5-2.5,5.9-4.1,9.5-4.1c3.6,0.2,7.1,2.1,9.5,4.8c-2.8-1.9-6-3.3-9.4-3.4
		C32,59.2,28.8,60.6,25.9,62.1"/>
	<path class="st0" d="M39.6,43.4c-0.1-1.4,0-6.8-1-7.8c-1.1-1.3-2.9-1.6-4.5-1.2c-1.2,0.3-2.3,1.1-2.6,2.3c-0.2,2.2-0.3,4.3-0.4,6.5
		h0l0,0h0c1-0.2,2.3-0.2,3.8-0.2C36.9,43,38.6,43.1,39.6,43.4L39.6,43.4C39.5,43.4,39.6,43.4,39.6,43.4"/>
</g>
</svg>
