<?xml version="1.0" encoding="utf-8"?>
<!-- Generator: Adobe Illustrator 26.3.1, SVG Export Plug-In . SVG Version: 6.00 Build 0)  -->
<svg version="1.1" id="Capa_1" xmlns="http://www.w3.org/2000/svg" xmlns:xlink="http://www.w3.org/1999/xlink" x="0px" y="0px"
	 viewBox="0 0 372 116" style="enable-background:new 0 0 372 116;" xml:space="preserve">
<style type="text/css">
	.st0{fill:#7064A9;}
</style>
<path d="M141.2,59.5c1.7,0,3-0.2,3.9-0.7c0.9-0.5,1.6-1.2,2.3-2.4c0.3-0.5,0.5-1.1,0.8-1.8c0.4-1.1,0.9-1.7,1.4-1.7
	c0.7,0,1.2,0.9,1.2,2.3c0,1.9-0.3,3.7-1,5.3c-0.6,1.6-1.3,2.4-2,2.4c-0.1,0-0.3,0-0.6-0.1c-1.1-0.3-2.2-0.4-3.2-0.4h-14.4
	c-2.9,0-4-0.4-4-1.5c0-0.4,0.5-0.8,1.4-1.1c0.9-0.3,1.5-0.5,1.6-0.7c0.3-0.3,0.4-1.5,0.5-3.5c0.1-2,0.2-5.6,0.2-10.9
	c0-5.2,0-8.9-0.2-10.8c-0.1-2-0.3-3.1-0.5-3.4c-0.1-0.2-0.7-0.4-1.6-0.7c-0.9-0.3-1.4-0.7-1.4-1.1c0-1.2,1.7-1.8,5.6-1.8
	c3.9,0,5.6,0.5,5.6,1.8c0,0.5-0.5,0.8-1.4,1.1c-0.9,0.3-1.4,0.5-1.6,0.7c-0.3,0.3-0.4,1.6-0.5,3.9c-0.1,2.3-0.2,5.7-0.2,10.4
	c0,4.6,0,7.9,0.1,9.8c0.1,1.9,0.3,3.1,0.5,3.7c0.5,1,1.9,1.4,5.5,1.4H141.2z"/>
<path d="M159.1,49.2c-0.6,0-0.8,0.2-0.8,0.9c0,3,0.8,5.4,2.3,7.3c1.6,1.9,3.6,2.8,6,2.8c1.9,0,3.7-0.6,5.2-1.8
	c0.4-0.3,0.9-0.8,1.6-1.6c0.7-0.8,1.3-1.1,1.7-1.1c0.5,0,0.9,0.4,0.9,0.9c0,0.7-0.5,1.6-1.2,2.4c-2.4,2.6-5.5,4-9.1,4
	c-3.4,0-6.2-1.2-8.4-3.5c-2.2-2.3-3.3-5.3-3.3-8.9c0-3.8,1.2-6.9,3.5-9.4c2.3-2.5,5.2-3.7,8.7-3.7c3,0,5.4,0.9,7.2,2.6
	c1.8,1.7,2.7,4,2.7,6.9c0,0.9-0.1,1.6-0.3,1.8c-0.2,0.3-0.8,0.4-1.7,0.4H159.1z M171.2,47.2c0.7,0,0.9-0.2,0.9-1
	c0-1.8-0.6-3.4-1.9-4.6c-1.3-1.2-2.8-1.8-4.7-1.8c-2,0-3.9,0.9-5.3,2.6c-1.1,1.3-1.8,3-1.8,4.2c0,0.5,0.2,0.7,0.8,0.7H171.2z"/>
<path d="M180.9,46.3c0-2.6,0.9-4.7,2.8-6.4c1.9-1.7,4.3-2.5,7.2-2.5c0.9,0,2.1,0.1,3.5,0.4c1.4,0.3,2.3,0.4,2.7,0.4
	c1.4,0,2.9-0.7,4-1.9c0.6,0.2,1,0.7,1,1.5c0,1.3-1,2.4-3,3.3c0.8,1.4,1.2,2.7,1.2,4.2c0,2.6-1,4.7-3,6.4c-2,1.7-4.4,2.6-7.4,2.6
	c-1.4,0-2.8-0.3-4.1-0.8c-1.4,0.5-2.3,1.7-2.3,3c0,1.4,1.4,2.4,3.3,2.4c1,0,2.7-0.1,5-0.4c2.3-0.3,4.1-0.4,5.4-0.4
	c3.8,0,6.1,2,6.1,5.4c0,2.6-1.3,4.7-3.8,6.4c-2.6,1.7-5.8,2.6-9.7,2.6c-3.1,0-5.5-0.6-7.4-1.9c-1.8-1.2-2.8-2.8-2.8-4.8
	c0-1.9,0.9-3.3,3.1-4.6c-1.8-0.8-2.7-1.9-2.7-3.5c0-2.1,1.4-3.7,4.1-5C182.1,51.2,180.9,49,180.9,46.3 M183.3,65.3
	c0,1.5,0.7,2.7,2,3.6c1.4,0.9,3.2,1.4,5.5,1.4c2.6,0,4.8-0.5,6.5-1.7c1.7-1.1,2.6-2.4,2.6-4.1c0-2-1.3-3.1-3.7-3.1
	c-0.4,0-1.5,0.1-3.2,0.3c-1.8,0.2-3.3,0.3-4.7,0.3c-1.3,0-2.4-0.1-3.4-0.3C183.8,62.7,183.3,64,183.3,65.3 M186.3,50.6
	c1.1,1.2,2.4,1.8,4.1,1.8c1.8,0,3.2-0.6,4.4-1.8c1.1-1.2,1.7-2.8,1.7-4.7c0-2-0.5-3.6-1.7-4.8c-1.1-1.2-2.6-1.8-4.3-1.8
	c-1.6,0-3,0.6-4.1,1.8c-1.1,1.2-1.7,2.8-1.7,4.7C184.7,47.8,185.3,49.4,186.3,50.6"/>
<path d="M207.5,44.8c-0.1-1.8-0.3-2.8-0.5-3.2c-0.1-0.2-0.6-0.4-1.5-0.5c-0.8-0.1-1.3-0.5-1.3-1c0-0.6,0.4-1.1,1.8-1.6
	c1.6-0.6,3.3-1.1,4.2-1.1c0.9,0,1.2,0.4,1.2,1.8c0,0.2,0,0.6,0,1.4c-0.1,4.4-0.2,8.8-0.2,13.3c0,2.2,0,3.6,0.1,4.3
	c0.1,0.7,0.3,1.2,0.5,1.4c0.2,0.2,0.6,0.3,1.3,0.5c0.7,0.2,1,0.5,1,0.9c0,1-1.4,1.4-4.6,1.4c-3.3,0-4.8-0.4-4.8-1.4
	c0-0.4,0.3-0.7,1-0.9c0.7-0.2,1.1-0.4,1.3-0.5c0.2-0.2,0.4-0.8,0.5-1.7c0.1-0.9,0.2-2.5,0.2-4.8C207.6,49.3,207.6,46.5,207.5,44.8
	 M209.3,26.9c1.5,0,2.5,1,2.5,2.4c0,1.4-1.2,2.6-2.6,2.6c-1.4,0-2.5-1-2.5-2.3C206.7,28,207.8,26.9,209.3,26.9"/>
<path d="M229.5,37.4c0.6,0,1.2,0.5,1.8,1.6c0.6,1.1,0.9,2.3,0.9,3.5c0,1.1-0.5,1.7-1.2,1.7c-0.5,0-1-0.5-1.5-1.4l-0.2-0.5
	c-0.5-1.2-1.1-2-1.8-2.4c-0.6-0.4-1.5-0.6-2.6-0.6c-1.1,0-2.1,0.4-2.9,1.1c-0.8,0.7-1.2,1.6-1.2,2.6c0,1.8,2,3.6,6,5.3l1.8,0.8
	c2.7,1.2,4.4,3.6,4.4,6.5c0,2.2-0.8,4-2.3,5.3c-1.6,1.4-3.6,2.1-6.1,2.1c-0.8,0-1.7-0.1-2.7-0.4c-1-0.3-1.6-0.4-1.8-0.4
	c-0.2,0-0.5,0.1-0.9,0.3c-0.4,0.2-0.6,0.3-0.8,0.3c-0.4,0-0.9-0.6-1.4-1.7c-0.5-1.2-0.7-2.3-0.7-3.6c0-0.9,0.6-1.6,1.4-1.6
	c0.5,0,1,0.5,1.5,1.5l0.5,0.9c1,1.7,2.8,2.7,4.9,2.7c1.4,0,2.6-0.4,3.5-1.2c0.9-0.8,1.4-1.8,1.4-3c0-1.9-1-3.2-3.3-4.3
	c-0.4-0.2-1.1-0.5-2-0.8c-2.4-0.9-4.2-1.9-5.2-3c-1.2-1.2-1.9-2.7-1.9-4.5c0-2,0.7-3.6,2.2-4.9c1.5-1.3,3.3-1.9,5.6-1.9
	c0.9,0,2.1,0.2,3.4,0.5C228.8,37.6,229.2,37.4,229.5,37.4"/>
<path d="M241.6,55.9c0.1,2,0.2,3.2,0.4,3.5c0.2,0.3,0.6,0.6,1.4,0.8c0.7,0.2,1.1,0.5,1.1,0.9c0,1-1.4,1.4-4.8,1.4
	c-3.4,0-4.8-0.4-4.8-1.4c0-0.4,0.4-0.7,1.1-0.9c0.7-0.2,1.2-0.5,1.4-0.8c0.2-0.3,0.3-1.1,0.3-2.5c0.1-1.4,0.1-4,0.1-7.9v-4.1
	c0-6.3-0.1-10.2-0.2-11.8c-0.1-1.6-0.4-2.5-0.7-2.8c-0.1-0.1-0.5-0.1-1.3-0.3c-0.8-0.1-1.2-0.5-1.2-1c0-0.6,0.5-1.1,1.8-1.6
	c0.8-0.3,1.7-0.6,2.5-0.8c0.8-0.2,1.4-0.3,1.8-0.3c0.9,0,1.3,0.4,1.3,1.8c0,0.2,0,0.6,0,1.5c-0.1,4.6-0.2,9.3-0.2,14
	C241.5,49.7,241.5,53.8,241.6,55.9"/>
<path d="M263.1,46.4c0-4.8-1.4-6.8-4.8-6.8c-1.7,0-3.1,0.6-4.3,2l-0.6,0.7c-0.8,1.1-1.6,1.7-2.4,1.7c-1,0-1.6-0.6-1.6-1.7
	c0-1.2,0.9-2.3,2.7-3.3c1.8-1,3.9-1.5,6.2-1.5c5.9,0,8.6,2.8,8.6,9c0,0.9,0,2.1,0,3.5c0,1.5,0,2.5,0,3.1c0,2.9,0.1,4.7,0.2,5.5
	c0.2,0.8,0.4,1.2,0.8,1.2c0.3,0,0.9-0.2,1.1-0.2c0.5,0,0.7,0.3,0.7,0.7c0,0.5-0.4,1.1-1.1,1.7c-0.7,0.6-1.5,0.9-2.3,0.9
	c-0.9,0-1.9-1-3.1-3l-0.2-0.4h-0.3c-2.2,2.2-4.6,3.2-7.5,3.2c-2.3,0-4.2-0.6-5.6-1.9c-1.4-1.3-2.1-3-2.1-5.1c0-2.5,0.9-4.5,2.8-5.9
	c1.9-1.4,4.5-2.1,7.8-2.1c1.7,0,3.4,0.1,5.1,0.3C263.1,47.6,263.1,47.3,263.1,46.4 M263.1,50c-1.7-0.3-3.1-0.4-4.3-0.4
	c-4.8,0-7.3,2-7.3,5.7c0,3.1,1.8,5,5,5c2,0,3.6-0.6,4.8-1.8c1.2-1.2,1.8-2.9,1.8-4.9V50z"/>
<path d="M274.9,41h-2c-0.5,0-0.7-0.2-0.7-0.5v-0.7c0-0.5,0.6-1.4,1.8-2.7c0.4-0.4,0.6-0.6,0.8-0.9l0.8-0.9c1.2-1.4,2-2,2.4-2
	c0.5,0,0.8,0.3,0.8,0.7v4.3h4.9c0.6,0,0.9,0.3,0.9,1v0.6c0,0.6-0.3,0.9-0.9,0.9h-4.4c-0.3,0-0.5,0.3-0.5,0.8v13.2
	c0,2,0.2,3.3,0.6,4.1c0.4,0.7,1.1,1,2,1c0.5,0,1-0.1,1.6-0.4c0.6-0.3,1-0.4,1.2-0.4c0.5,0,0.8,0.3,0.8,0.8c0,0.7-0.5,1.4-1.6,2
	c-1.1,0.6-2.3,1-3.6,1c-1.7,0-3-0.5-3.7-1.6c-0.7-1.1-1.1-2.8-1.1-5.4V41z"/>
<path d="M305.8,59.2c0-0.5-0.1-0.7-0.3-0.7c-0.2,0-0.5,0.3-1,0.9c-0.4,0.5-0.6,0.9-0.9,1.1c-1.5,1.7-3.4,2.5-6,2.5
	c-5.9,0-8.5-3.5-8.5-11.6v-4.1c0-2.3,0-3.8-0.2-4.6c-0.1-0.8-0.3-1.2-0.6-1.4c-0.1-0.1-0.5-0.1-1.3-0.2c-0.8-0.1-1.2-0.5-1.2-1
	c0-0.6,0.6-1.1,1.8-1.6c0.8-0.3,1.6-0.6,2.5-0.8c0.8-0.2,1.4-0.3,1.8-0.3c1,0,1.3,0.4,1.3,1.8c0,0.8-0.1,2.2-0.2,4.2
	c-0.1,2-0.2,3.5-0.2,4.7v1.4c0,2.3,0,4,0.1,5c0.1,1,0.3,1.9,0.5,2.6c0.7,1.9,2.5,3.1,4.9,3.1c2.4,0,4.6-1.2,6.3-3.3
	c0.4-0.5,0.7-1.1,0.8-1.8c0.2-0.7,0.2-1.8,0.2-3.4v-2.8v-1.4c0-2.3,0-3.8-0.2-4.6s-0.3-1.2-0.6-1.4c-0.1-0.1-0.5-0.1-1.3-0.3
	c-0.8-0.1-1.2-0.5-1.2-1c0-0.6,0.5-1.1,1.8-1.6c0.8-0.3,1.6-0.6,2.5-0.8c0.8-0.2,1.4-0.3,1.8-0.3c0.9,0,1.2,0.4,1.2,1.8
	c0,1,0,2.6-0.2,4.7c-0.1,2.1-0.2,3.7-0.2,4.8c0,3.6,0,6.1,0.1,7.5c0.1,1.4,0.2,2.3,0.5,2.7c0.1,0.2,0.6,0.4,1.5,0.5
	c0.9,0.1,1.3,0.5,1.3,1c0,0.5-0.7,1.1-2,1.8c-1.3,0.6-2.6,0.9-3.8,0.9c-0.9,0-1.2-0.4-1.2-1.8V59.2z"/>
<path d="M322.1,42.2c2-3.1,4.4-4.8,6.5-4.8c1.8,0,3,1.2,3,3c0,1.6-1.1,2.7-2.6,2.7c-1.4,0-2.3-0.9-2.5-2.4c-1.7,0.5-2.8,1.4-3.5,2.6
	c-0.6,1.2-1,3.7-1,7.5c0,2.9,0,5,0.1,6.3c0.1,1.3,0.2,2,0.4,2.3c0.2,0.4,0.8,0.6,1.7,0.7c0.3,0,0.5,0.1,0.7,0.1
	c0.7,0.1,1.1,0.5,1.1,0.9c0,1-1.8,1.4-5.6,1.4c-3.4,0-4.8-0.4-4.8-1.4c0-0.4,0.3-0.7,1-0.9c0.7-0.2,1.1-0.4,1.2-0.5
	c0.3-0.2,0.4-0.7,0.5-1.5c0.1-0.8,0.2-2.2,0.2-4.2c0-5.4-0.1-9-0.5-10.8c-0.1-0.7-0.3-1.1-0.5-1.4c-0.2-0.3-0.7-0.4-1.4-0.4h-0.4
	c-0.5,0-1-0.4-1-1c0-0.6,0.4-1,1.7-1.6c1.6-0.9,3.3-1.4,3.9-1.4c0.9,0,1.3,1.2,1.6,4.7L322.1,42.2z"/>
<path d="M349.3,46.4c0-4.8-1.4-6.8-4.8-6.8c-1.7,0-3.1,0.6-4.3,2l-0.6,0.7c-0.8,1.1-1.6,1.7-2.4,1.7c-1,0-1.6-0.6-1.6-1.7
	c0-1.2,0.9-2.3,2.7-3.3c1.8-1,3.9-1.5,6.2-1.5c5.9,0,8.6,2.8,8.6,9c0,0.9,0,2.1,0,3.5c0,1.5,0,2.5,0,3.1c0,2.9,0.1,4.7,0.2,5.5
	c0.2,0.8,0.4,1.2,0.8,1.2c0.3,0,0.9-0.2,1.1-0.2c0.5,0,0.7,0.3,0.7,0.7c0,0.5-0.4,1.1-1.1,1.7c-0.7,0.6-1.5,0.9-2.3,0.9
	c-0.9,0-1.9-1-3.1-3l-0.2-0.4h-0.3c-2.2,2.2-4.6,3.2-7.5,3.2c-2.3,0-4.2-0.6-5.6-1.9c-1.4-1.3-2.1-3-2.1-5.1c0-2.5,0.9-4.5,2.8-5.9
	c1.9-1.4,4.5-2.1,7.8-2.1c1.7,0,3.4,0.1,5.1,0.3C349.3,47.6,349.3,47.3,349.3,46.4 M349.3,50c-1.7-0.3-3.1-0.4-4.3-0.4
	c-4.8,0-7.3,2-7.3,5.7c0,3.1,1.8,5,5,5c2,0,3.6-0.6,4.8-1.8c1.2-1.2,1.8-2.9,1.8-4.9V50z"/>
<path d="M134.1,86.8c-0.2,0-0.3,0.1-0.5,0.4c-0.1,0.2-0.2,0.3-0.3,0.4c-0.5,0.6-1.4,0.9-2.4,0.9c-1.4,0-2.3-0.6-3.1-1.8
	c-0.6-0.9-0.9-2.2-0.9-3.5c0-1.3,0.3-2.3,1-3c0.6-0.7,1.5-1.1,2.6-1.1c1.2,0,2.1,0.3,2.5,1c0.1,0.1,0.2,0.2,0.3,0.5
	c0.2,0.4,0.3,0.6,0.6,0.6c0.1,0,0.5-0.1,0.5-0.7c0-0.6-0.1-1-0.2-1.4c-0.2-0.4-0.4-0.6-0.6-0.6c-0.1,0-0.2,0-0.3,0.1
	c-0.2,0-0.3,0.1-0.4,0.1c-0.1,0-0.6-0.2-0.8-0.2c-0.5-0.1-1.1-0.2-1.6-0.2c-0.8,0-1.6,0.2-2.3,0.6c-0.7,0.4-1.3,0.9-1.8,1.5
	c-0.7,0.9-1.1,2.1-1.1,3.4c0,2.1,0.8,3.8,2.3,4.9h0c0.9,0.6,2,0.9,3.1,0.9c0.9,0,1.7-0.2,2.5-0.6c0,0,0.1,0,0.1-0.1l0,0
	c0.2-0.1,0.2-0.1,0.3-0.1c0,0,0,0,0.1,0c0,0,0.1,0,0.1,0c0.2,0,0.4-0.2,0.6-0.5c0.2-0.3,0.2-0.6,0.2-1
	C134.6,87,134.4,86.8,134.1,86.8"/>
<path d="M137.7,88.6c-0.1,0-0.3-0.1-0.3-0.1c0,0-0.1-0.1-0.1-0.4c0-0.2,0-0.7,0-1.3c0-1.5,0-2.8,0.1-4.1c0-0.2,0-0.4,0-0.4
	c0-0.4-0.1-0.6-0.4-0.6c-0.3,0-0.8,0.1-1.3,0.3c-0.4,0.2-0.6,0.3-0.6,0.6c0,0.1,0.1,0.3,0.5,0.4c0.3,0,0.4,0.1,0.4,0.1
	c0,0,0.1,0.2,0.1,0.9c0,0.5,0,1.4,0,2.5c0,0.7,0,1.2,0,1.5c0,0.3-0.1,0.4-0.1,0.5c0,0-0.3,0.1-0.3,0.1c-0.2,0.1-0.4,0.2-0.4,0.4
	c0,0.4,0.4,0.5,1.5,0.5c1,0,1.5-0.2,1.5-0.5C138.1,88.8,138,88.7,137.7,88.6"/>
<path d="M136.5,80.1c0.5,0,0.9-0.4,0.9-0.9c0-0.5-0.3-0.8-0.8-0.8c-0.5,0-0.9,0.4-0.9,0.9C135.7,79.8,136,80.1,136.5,80.1"/>
<path d="M146.4,88.3c-0.3,0-0.4-0.1-0.4-0.1c0-0.1-0.1-0.2-0.1-0.8c0-0.3,0-1,0-2.3c0-0.4,0-0.9,0.1-1.5c0-0.6,0-1.1,0-1.4
	c0-0.4-0.1-0.6-0.5-0.6c-0.1,0-0.3,0-0.6,0.1c-0.2,0.1-0.5,0.1-0.8,0.2c-0.4,0.2-0.6,0.3-0.6,0.6c0,0.1,0.1,0.3,0.4,0.4
	c0.1,0,0.3,0.1,0.4,0.1c0,0,0.1,0.1,0.1,0.4c0,0.2,0.1,0.7,0.1,1.4V86c0,0.5,0,0.8-0.1,1c-0.1,0.2-0.1,0.4-0.2,0.5
	c-0.5,0.6-1.1,1-1.8,1c-0.7,0-1.2-0.3-1.4-0.9c-0.1-0.2-0.1-0.4-0.2-0.8c0-0.3,0-0.8,0-1.5V85c0-0.4,0-0.9,0.1-1.4
	c0-0.7,0.1-1.1,0.1-1.3c0-0.4-0.1-0.6-0.5-0.6c-0.1,0-0.3,0-0.6,0.1c-0.2,0.1-0.5,0.1-0.8,0.2c-0.3,0.1-0.6,0.3-0.6,0.6
	c0,0.1,0.1,0.3,0.4,0.4c0.2,0,0.3,0,0.4,0.1c0,0,0.1,0.1,0.1,0.4c0,0.2,0,0.7,0,1.4V86c0,2.5,0.8,3.6,2.7,3.6c0.8,0,1.4-0.3,1.9-0.8
	c0.1-0.1,0.2-0.2,0.3-0.3c0.1-0.2,0.2-0.2,0.2-0.2c0,0,0,0,0,0.1V89c0,0.4,0.1,0.6,0.4,0.6c0.4,0,0.8-0.1,1.2-0.3
	c0.4-0.2,0.7-0.4,0.7-0.6C146.8,88.6,146.7,88.4,146.4,88.3"/>
<path d="M155,88.3c-0.3,0-0.4-0.1-0.4-0.1c0-0.1-0.1-0.2-0.1-1c0-0.6,0-1.5,0-3c0-1.1,0-2.2,0.1-3.3c0.1-1.3,0.1-1.9,0.1-2.1
	c0-0.4-0.1-0.6-0.4-0.6c-0.3,0-0.8,0.1-1.3,0.3c-0.3,0.1-0.6,0.3-0.6,0.6c0,0.2,0.1,0.4,0.5,0.4c0.1,0,0.2,0,0.2,0
	c0.2,0.1,0.2,0.4,0.2,1.1v1.2c0,0.3-0.1,0.3-0.1,0.3c0,0,0,0-0.1-0.1c-0.6-0.3-1.2-0.5-1.9-0.5c-1,0-1.9,0.4-2.6,1.2
	c-0.7,0.8-1.1,1.8-1.1,2.9c0,1.1,0.3,2,0.9,2.7c0.6,0.7,1.4,1,2.4,1c0.8,0,1.4-0.2,2-0.6l0.1-0.1c0.2-0.1,0.2-0.1,0.3-0.2
	c0,0,0,0.1,0,0.1V89c0,0.4,0.1,0.6,0.4,0.6c0.4,0,0.8-0.1,1.2-0.3c0.4-0.2,0.7-0.4,0.7-0.6C155.5,88.6,155.4,88.4,155,88.3
	 M153.2,84.4V87c0,0.3,0,0.5-0.1,0.6c0,0.1-0.1,0.2-0.2,0.3c-0.5,0.4-1.1,0.7-1.7,0.7c-0.7,0-1.2-0.3-1.6-0.8
	c-0.4-0.5-0.6-1.2-0.6-2.1c0-1,0.2-1.7,0.7-2.3c0.4-0.6,1-0.9,1.7-0.9C152.5,82.6,153.2,83.2,153.2,84.4"/>
<path d="M162.7,88.4c0,0-0.1,0-0.1,0c-0.1,0-0.2,0-0.2,0c-0.1,0-0.1-0.2-0.2-0.3c0-0.2-0.1-0.8-0.1-1.7c0-0.1,0-0.3,0-0.5l0-0.7
	c0-0.3,0-0.6,0-0.8c0-1.9-0.9-2.8-2.7-2.8c-0.7,0-1.4,0.2-1.9,0.5c-0.6,0.3-0.9,0.7-0.9,1.1c0,0.4,0.2,0.6,0.6,0.6
	c0.3,0,0.5-0.2,0.8-0.5l0.2-0.2c0.4-0.4,0.7-0.6,1.2-0.6c1,0,1.4,0.6,1.4,2c0,0.2,0,0.3,0,0.4c-0.6-0.1-1-0.1-1.5-0.1
	c-1,0-1.8,0.2-2.4,0.7c-0.6,0.4-0.9,1.1-0.9,1.9c0,0.7,0.2,1.2,0.7,1.6c0.4,0.4,1,0.6,1.8,0.6c0.9,0,1.6-0.3,2.3-1h0l0,0.1
	c0.4,0.7,0.7,1,1,1c0.3,0,0.5-0.1,0.7-0.3c0.2-0.2,0.4-0.4,0.4-0.6C163,88.5,162.9,88.4,162.7,88.4 M160.9,85.6v1
	c0,0.6-0.2,1.1-0.5,1.4c-0.4,0.4-0.8,0.5-1.4,0.5c-0.9,0-1.4-0.5-1.4-1.4c0-1.4,1.2-1.7,2.2-1.7C160,85.5,160.4,85.6,160.9,85.6"/>
<path d="M171.4,88.3c-0.3,0-0.4-0.1-0.4-0.1c0-0.1-0.1-0.2-0.1-1c0-0.6,0-1.5,0-3c0-1.1,0-2.2,0.1-3.3c0.1-1.3,0.1-1.9,0.1-2.1
	c0-0.4-0.1-0.6-0.4-0.6c-0.3,0-0.8,0.1-1.3,0.3c-0.3,0.1-0.6,0.3-0.6,0.6c0,0.2,0.1,0.4,0.5,0.4c0.1,0,0.2,0,0.2,0
	c0.2,0.1,0.2,0.4,0.2,1.1v1.2c0,0.3-0.1,0.3-0.1,0.3c0,0,0,0-0.1-0.1c-0.6-0.3-1.2-0.5-1.9-0.5c-1,0-1.9,0.4-2.6,1.2
	c-0.7,0.8-1.1,1.8-1.1,2.9c0,1.1,0.3,2,0.9,2.7c0.6,0.7,1.4,1,2.4,1c0.8,0,1.4-0.2,2-0.6l0.1-0.1c0.2-0.1,0.2-0.1,0.3-0.2
	c0,0,0,0.1,0,0.1V89c0,0.4,0.1,0.6,0.4,0.6c0.4,0,0.8-0.1,1.2-0.3c0.4-0.2,0.7-0.4,0.7-0.6C171.9,88.6,171.8,88.4,171.4,88.3
	 M169.6,84.4V87c0,0.3,0,0.5-0.1,0.6c0,0.1-0.1,0.2-0.2,0.3c-0.5,0.4-1.1,0.7-1.7,0.7c-0.7,0-1.2-0.3-1.6-0.8
	c-0.4-0.5-0.6-1.2-0.6-2.1c0-1,0.2-1.7,0.7-2.3c0.4-0.6,1-0.9,1.7-0.9C168.9,82.6,169.6,83.2,169.6,84.4"/>
<path d="M186.4,88.4c-0.2-0.1-0.2-0.1-0.3-0.1c-0.2-0.1-0.4-0.4-0.5-0.8c0-0.1,0-0.1-0.1-0.2l-0.1-0.2c-0.2-0.6-0.6-1.4-1-2.5
	c-1-2.6-1.8-4.5-2.3-5.7c-0.2-0.3-0.3-0.5-0.4-0.6c-0.1-0.1-0.2-0.1-0.4-0.1c-0.3,0-0.5,0.1-0.6,0.4l0,0.1c-0.1,0.3-0.7,1.8-1.9,4.7
	c-0.5,1.2-1,2.3-1.3,3.2l0,0.1c-0.3,0.8-0.6,1.3-0.8,1.5c-0.1,0-0.2,0.1-0.3,0.1c-0.4,0.1-0.5,0.3-0.5,0.4c0,0.5,0.7,0.6,1.8,0.6
	c1.3,0,1.8-0.2,1.8-0.6c0-0.2-0.2-0.3-0.5-0.5l-0.1,0c-0.1,0-0.1,0-0.2-0.1c-0.3-0.1-0.4-0.2-0.4-0.4c0-0.1,0.1-0.4,0.3-1l0.2-0.4
	c0.1-0.2,0.1-0.3,0.2-0.4l0,0c0-0.1,0.1-0.1,0.1-0.2c0,0,0.1-0.1,0.3-0.1c0.2,0,0.5,0,1.1,0h1.6c0.5,0,0.9,0,1.1,0.1
	c0.2,0,0.3,0.1,0.3,0.2c0.2,0.4,0.3,0.7,0.5,1.1c0.1,0.5,0.2,0.7,0.2,0.8c0,0.2-0.1,0.4-0.4,0.4c0,0-0.1,0-0.2,0.1
	c-0.4,0.1-0.6,0.3-0.6,0.5c0,0.4,0.6,0.6,2,0.6c1.4,0,2-0.2,2-0.6C186.9,88.7,186.7,88.6,186.4,88.4 M183,84.8c-0.2,0-0.5,0-0.7,0
	c-0.3,0-0.7,0-1.3,0c-0.5,0-0.9,0-1.1,0l-0.5,0c0.9-2.2,1.4-3.5,1.8-4.2h0c0.2,0.4,0.4,0.9,0.8,1.7C182.3,83,182.7,83.9,183,84.8"/>
<path d="M194.2,88.3c-0.3,0-0.4-0.1-0.4-0.1c0-0.1-0.1-0.2-0.1-0.8c0-0.3,0-1,0-2.3c0-0.4,0-0.9,0.1-1.5c0-0.6,0-1.1,0-1.4
	c0-0.4-0.1-0.6-0.5-0.6c-0.1,0-0.3,0-0.6,0.1c-0.2,0.1-0.5,0.1-0.8,0.2c-0.4,0.2-0.6,0.3-0.6,0.6c0,0.1,0.1,0.3,0.4,0.4
	c0.1,0,0.3,0.1,0.4,0.1c0,0,0.1,0.1,0.1,0.4c0,0.2,0,0.7,0,1.4V86c0,0.5,0,0.8-0.1,1c-0.1,0.2-0.1,0.4-0.2,0.5c-0.5,0.6-1.1,1-1.8,1
	c-0.7,0-1.2-0.3-1.4-0.9c-0.1-0.2-0.1-0.4-0.2-0.8c0-0.3,0-0.8,0-1.5V85c0-0.4,0-0.9,0.1-1.4c0-0.7,0.1-1.1,0.1-1.3
	c0-0.4-0.1-0.6-0.5-0.6c-0.1,0-0.3,0-0.6,0.1c-0.2,0.1-0.5,0.1-0.8,0.2c-0.3,0.1-0.6,0.3-0.6,0.6c0,0.1,0.1,0.3,0.4,0.4
	c0.2,0,0.3,0,0.4,0.1c0,0,0.1,0.1,0.1,0.4c0,0.2,0,0.7,0,1.4V86c0,2.5,0.8,3.6,2.7,3.6c0.8,0,1.4-0.3,1.9-0.8
	c0.1-0.1,0.2-0.2,0.3-0.3c0.1-0.2,0.2-0.2,0.2-0.2c0,0,0,0,0,0.1V89c0,0.4,0.1,0.6,0.4,0.6c0.4,0,0.8-0.1,1.2-0.3
	c0.4-0.2,0.7-0.4,0.7-0.6C194.6,88.6,194.5,88.4,194.2,88.3"/>
<path d="M198.8,88.3c-0.1,0-0.2,0-0.4,0.1c-0.2,0.1-0.3,0.1-0.5,0.1c-0.3,0-0.4-0.1-0.5-0.3c-0.1-0.2-0.2-0.6-0.2-1.2v-4
	c0-0.1,0-0.2,0.1-0.2h1.3c0.2,0,0.3-0.1,0.3-0.4v-0.2c0-0.2,0-0.4-0.3-0.4h-1.4v-1.2c0-0.2-0.1-0.3-0.3-0.3c-0.1,0-0.3,0.1-0.8,0.6
	l-0.2,0.3c0,0.1-0.1,0.1-0.2,0.3c-0.5,0.6-0.6,0.8-0.6,0.9v0.2c0,0.1,0.1,0.2,0.3,0.2h0.5v4.5c0,0.8,0.1,1.3,0.4,1.7
	c0.2,0.3,0.6,0.5,1.2,0.5c0.4,0,0.8-0.1,1.1-0.3c0.3-0.2,0.5-0.4,0.5-0.7C199.1,88.4,199,88.3,198.8,88.3"/>
<path d="M203.6,81.6c-1.1,0-2.1,0.4-2.9,1.2c-0.8,0.8-1.1,1.8-1.1,2.9c0,1.1,0.4,2,1.1,2.8c0.7,0.7,1.6,1.1,2.7,1.1
	c1.1,0,2.1-0.4,2.8-1.2c0.8-0.8,1.1-1.8,1.1-3c0-1.1-0.4-2-1.1-2.7C205.6,82,204.7,81.6,203.6,81.6 M205.2,88
	c-0.4,0.5-1,0.8-1.7,0.8c-0.7,0-1.3-0.3-1.7-1c-0.5-0.7-0.7-1.5-0.7-2.5c0-0.8,0.2-1.5,0.6-2c0.4-0.5,0.9-0.8,1.6-0.8
	c0.7,0,1.3,0.3,1.8,0.9c0.5,0.6,0.7,1.4,0.7,2.4C205.8,86.8,205.6,87.5,205.2,88"/>
<path d="M202.7,81c0.1,0,0.3-0.1,0.6-0.3l2.1-1.2c0.3-0.2,0.4-0.3,0.4-0.5c0-0.2-0.1-0.3-0.2-0.5c-0.1-0.2-0.3-0.2-0.4-0.2
	c-0.2,0-0.3,0.1-0.6,0.3l-1.8,1.4l-0.2,0.1c-0.3,0.2-0.4,0.4-0.4,0.5C202.3,80.8,202.5,81,202.7,81"/>
<path d="M215.8,88.6c-0.1,0-0.2-0.1-0.2-0.1c-0.2-0.1-0.2-0.2-0.2-0.6c0-0.6,0-1.2,0-1.7c0-0.1,0-0.3,0-0.6c0-0.2,0-0.4,0-0.5
	c0-0.6,0-1-0.1-1.3c-0.3-1.5-1.2-2.2-2.6-2.2c-0.8,0-1.4,0.3-1.9,0.8c-0.1,0.1-0.2,0.2-0.3,0.3c-0.2,0.2-0.2,0.2-0.2,0.2
	c0,0,0,0,0-0.1v-0.6c0-0.4-0.1-0.6-0.4-0.6c-0.4,0-0.8,0.1-1.2,0.3c-0.4,0.2-0.7,0.4-0.7,0.6c0,0.1,0.1,0.3,0.5,0.4
	c0.3,0,0.4,0.1,0.4,0.1c0.1,0.1,0.2,0.5,0.2,2.4c0,1.2,0,1.8,0,2.1c0,0.5-0.1,0.7-0.1,0.8c0,0.1-0.2,0.1-0.4,0.2
	c-0.3,0.1-0.4,0.3-0.4,0.4c0,0.4,0.5,0.5,1.6,0.5c1.1,0,1.5-0.2,1.5-0.5c0-0.1-0.1-0.3-0.4-0.4c-0.2-0.1-0.3-0.1-0.4-0.2
	c0-0.1-0.1-0.3-0.1-0.7c0-0.4,0-1,0-2.2V85c0-0.6,0.1-0.9,0.3-1.2c0.5-0.6,1.1-1,1.9-1c0.6,0,1,0.2,1.2,0.5c0.2,0.4,0.4,1,0.4,1.9
	c0,1.4,0,2.2,0,2.5c0,0.1,0,0.5-0.1,0.6c0,0.1-0.2,0.1-0.4,0.2c-0.3,0.1-0.4,0.3-0.4,0.4c0,0.5,0.7,0.5,1.5,0.5
	c0.9,0,1.5-0.1,1.5-0.5C216.2,88.7,215.9,88.6,215.8,88.6"/>
<path d="M220.7,81.6c-1.1,0-2.1,0.4-2.9,1.2c-0.8,0.8-1.1,1.8-1.1,2.9c0,1.1,0.4,2,1.1,2.8c0.7,0.7,1.6,1.1,2.7,1.1
	c1.1,0,2.1-0.4,2.8-1.2c0.7-0.8,1.1-1.8,1.1-3c0-1.1-0.4-2-1-2.7C222.7,82,221.8,81.6,220.7,81.6 M218.8,83.3
	c0.4-0.5,0.9-0.8,1.6-0.8c0.7,0,1.3,0.3,1.8,0.9c0.5,0.6,0.7,1.4,0.7,2.4c0,0.9-0.2,1.6-0.6,2.2c-0.4,0.5-1,0.8-1.7,0.8
	c-0.7,0-1.3-0.3-1.7-1c-0.5-0.7-0.7-1.5-0.7-2.5C218.2,84.5,218.4,83.8,218.8,83.3"/>
<path d="M237.2,88.6c-0.1,0-0.3-0.1-0.4-0.1c0,0-0.1-0.1-0.1-0.4c0-0.2,0-0.7,0-1.3v-1.3c0-0.6,0-1.1-0.1-1.5c0-0.3-0.1-0.7-0.2-0.9
	c-0.3-0.9-1.2-1.4-2.3-1.4c-0.8,0-1.4,0.3-1.9,1c-0.1,0.1-0.1,0.2-0.2,0.3c-0.2,0.2-0.2,0.2-0.2,0.2c0,0,0,0-0.1-0.2
	c-0.1-0.2-0.2-0.3-0.3-0.4c-0.4-0.6-1.1-0.9-1.8-0.9c-0.7,0-1.3,0.3-1.9,1c0,0,0,0,0,0.1c0,0,0,0.1-0.1,0.1
	c-0.1,0.2-0.2,0.2-0.2,0.2c0,0,0,0,0-0.1v-0.6c0-0.4-0.1-0.6-0.4-0.6c-0.4,0-0.8,0.1-1.2,0.3c-0.4,0.2-0.7,0.4-0.7,0.6
	c0,0.1,0.1,0.3,0.5,0.4c0.3,0,0.4,0.1,0.4,0.1c0.1,0.1,0.2,0.5,0.2,2.4c0,1.2,0,1.8,0,2.1c0,0.5-0.1,0.7-0.1,0.7
	c0,0.1-0.2,0.1-0.4,0.2c-0.3,0.1-0.4,0.3-0.4,0.4c0,0.4,0.5,0.5,1.6,0.5c1.1,0,1.5-0.2,1.5-0.5c0-0.1-0.1-0.3-0.4-0.4
	c-0.2-0.1-0.3-0.1-0.4-0.2c0-0.1-0.1-0.3-0.1-0.7c0-0.4,0-1,0-2.2v-0.3c0-0.4,0-0.6,0-0.8c0-0.2,0.1-0.3,0.1-0.4
	c0.2-0.4,0.5-0.7,0.8-0.9c0.4-0.2,0.7-0.3,1-0.3c0.5,0,0.8,0.2,1,0.6c0.2,0.4,0.3,1,0.3,1.9c0,1.4,0,2.2,0,2.5c0,0.1,0,0.5-0.1,0.6
	c0,0.1-0.2,0.1-0.4,0.2c-0.3,0.1-0.4,0.3-0.4,0.4c0,0.5,0.7,0.5,1.5,0.5c0.8,0,1.5-0.1,1.5-0.5c0-0.2-0.1-0.3-0.4-0.4
	c-0.1,0-0.3-0.1-0.4-0.1c0,0-0.1-0.1-0.1-0.4c0-0.2,0-0.7,0-1.3v-0.6c0-0.7,0-1.2,0-1.5c0-0.4,0.1-0.5,0.1-0.6
	c0.2-0.3,0.5-0.6,0.8-0.9c0.3-0.2,0.7-0.3,1-0.3c0.5,0,0.8,0.2,1,0.6c0.2,0.4,0.3,1,0.3,1.9c0,1.3,0,2,0,2.4c0,0.2,0,0.6-0.1,0.7
	c0,0.1-0.2,0.1-0.4,0.2c-0.3,0.1-0.4,0.3-0.4,0.4c0,0.4,0.4,0.5,1.5,0.5c1.1,0,1.5-0.2,1.5-0.5C237.6,88.8,237.4,88.7,237.2,88.6"/>
<path d="M244.9,88.4c0,0-0.1,0-0.1,0c-0.1,0-0.2,0-0.2,0c-0.1,0-0.1-0.2-0.2-0.3c0-0.2-0.1-0.8-0.1-1.7c0-0.1,0-0.3,0-0.5l0-0.7
	c0-0.3,0-0.6,0-0.8c0-1.9-0.9-2.8-2.7-2.8c-0.7,0-1.4,0.2-1.9,0.5c-0.6,0.3-0.9,0.7-0.9,1.1c0,0.4,0.2,0.6,0.6,0.6
	c0.3,0,0.5-0.2,0.8-0.5l0.2-0.2c0.4-0.4,0.7-0.6,1.2-0.6c1,0,1.4,0.6,1.4,2c0,0.2,0,0.3,0,0.4c-0.6-0.1-1-0.1-1.5-0.1
	c-1,0-1.8,0.2-2.4,0.7c-0.6,0.4-0.9,1.1-0.9,1.9c0,0.7,0.2,1.2,0.7,1.6c0.4,0.4,1,0.6,1.8,0.6c0.9,0,1.6-0.3,2.3-1h0l0,0.1
	c0.4,0.7,0.7,1,1,1c0.3,0,0.5-0.1,0.7-0.3c0.2-0.2,0.4-0.4,0.4-0.6C245.1,88.5,245,88.4,244.9,88.4 M243,85.6v1
	c0,0.6-0.2,1.1-0.5,1.4c-0.4,0.4-0.8,0.5-1.4,0.5c-0.9,0-1.4-0.5-1.4-1.4c0-1.4,1.2-1.7,2.2-1.7C242.1,85.5,242.5,85.6,243,85.6"/>
<path d="M257.5,88.3c-0.3,0-0.4-0.1-0.4-0.1c0-0.1-0.1-0.2-0.1-1c0-0.6,0-1.6,0-3c0-1.1,0-2.2,0.1-3.3c0.1-1.3,0.1-1.9,0.1-2.1
	c0-0.4-0.1-0.6-0.4-0.6c-0.3,0-0.8,0.1-1.3,0.3c-0.3,0.1-0.6,0.3-0.6,0.6c0,0.2,0.1,0.4,0.5,0.4c0.1,0,0.2,0,0.2,0
	c0.2,0.1,0.2,0.4,0.2,1.1v1.2c0,0.3-0.1,0.3-0.1,0.3c0,0,0,0-0.1-0.1c-0.6-0.3-1.2-0.5-1.9-0.5c-1,0-1.9,0.4-2.6,1.2
	c-0.7,0.8-1.1,1.8-1.1,2.9c0,1.1,0.3,2,0.9,2.7c0.6,0.7,1.4,1,2.4,1c0.8,0,1.4-0.2,2-0.6l0.1-0.1c0.2-0.1,0.2-0.1,0.3-0.2
	c0,0,0,0.1,0,0.1V89c0,0.4,0.1,0.6,0.4,0.6c0.4,0,0.8-0.1,1.2-0.3c0.4-0.2,0.7-0.4,0.7-0.6C258,88.6,257.9,88.4,257.5,88.3
	 M255.7,84.4V87c0,0.3,0,0.5-0.1,0.6c0,0.1-0.1,0.2-0.2,0.3c-0.5,0.4-1.1,0.7-1.7,0.7c-0.7,0-1.2-0.3-1.6-0.8
	c-0.4-0.5-0.6-1.2-0.6-2.1c0-1,0.2-1.7,0.7-2.3c0.4-0.6,1-0.9,1.7-0.9C255,82.6,255.7,83.2,255.7,84.4"/>
<path d="M260.3,85.4h4.6c0.3,0,0.5-0.1,0.6-0.2c0.1-0.1,0.1-0.3,0.1-0.6c0-0.9-0.3-1.6-0.8-2.2c-0.6-0.5-1.3-0.8-2.3-0.8
	c-1.1,0-2,0.4-2.7,1.2c-0.7,0.8-1.1,1.8-1.1,2.9c0,1.1,0.3,2,1,2.8c0.7,0.7,1.6,1.1,2.6,1.1c1.1,0,2.1-0.4,2.8-1.3
	c0.3-0.3,0.4-0.6,0.4-0.8c0-0.2-0.2-0.4-0.4-0.4c-0.2,0-0.4,0.1-0.6,0.4c-0.2,0.2-0.3,0.4-0.5,0.5c-0.4,0.4-1,0.5-1.5,0.5
	c-0.7,0-1.3-0.3-1.8-0.8c-0.5-0.6-0.7-1.3-0.7-2.2C260.1,85.4,260.1,85.4,260.3,85.4 M260.7,83.3c0.4-0.5,1-0.8,1.6-0.8
	c0.6,0,1,0.2,1.4,0.5c0.4,0.3,0.5,0.8,0.5,1.3c0,0.2,0,0.2-0.2,0.2h-3.7c-0.2,0-0.2,0-0.2-0.1C260.1,84.1,260.3,83.6,260.7,83.3"/>
<path d="M276.6,83.8l-0.3-0.1c-0.2,0-0.3-0.1-0.3-0.1c0,0,0.1,0,0.2-0.1c0.2-0.1,0.4-0.1,0.6-0.2l0,0c1-0.5,1.5-1.3,1.5-2.3
	c0-0.8-0.3-1.5-1-2c-0.6-0.5-1.5-0.7-2.6-0.7c-1.4,0-2.6,0-3.6,0.1l-0.1,0c-0.5,0.1-0.6,0.4-0.6,0.5c0,0.2,0.3,0.4,0.5,0.4
	c0.4,0.1,0.4,0.2,0.4,0.2c0,0,0.1,0.2,0.1,1c0,0.6,0.1,1.6,0.1,3.3c0,1.7,0,2.8-0.1,3.3c0,0.8-0.1,1-0.1,1c0,0-0.1,0.1-0.4,0.2
	c-0.3,0.1-0.5,0.2-0.5,0.4c0,0.5,0.6,0.5,1.1,0.5c0,0,0.2,0,0.5,0c0.3,0,0.5,0,0.8,0c0.2,0,0.5,0,1,0c0.6,0,0.9,0,1.2,0
	c1.3,0,2.3-0.3,2.9-0.8c0.7-0.5,1.1-1.3,1.1-2.2C278.9,85.1,278.1,84.2,276.6,83.8 M272.8,85c0-0.5,0.1-0.6,0.1-0.6
	c0,0,0.1-0.1,0.5-0.1c1.4,0,2.3,0.2,2.9,0.6c0.6,0.4,0.9,0.9,0.9,1.7c0,0.6-0.2,1.1-0.7,1.5c-0.5,0.4-1.1,0.5-1.9,0.5
	c-0.5,0-0.9-0.1-1.2-0.1c-0.4-0.1-0.5-0.2-0.5-0.3c-0.1-0.3-0.1-1.4-0.1-3V85z M273.4,83.3c-0.3,0-0.4-0.1-0.5-0.1
	c0,0-0.1-0.1-0.1-0.5v-0.8c0-1.5,0-2.3,0.1-2.5c0,0,0.2-0.1,1.2-0.1c1.6,0,2.5,0.7,2.5,2c0,0.7-0.2,1.2-0.7,1.5
	C275.4,83.1,274.5,83.3,273.4,83.3"/>
<path d="M287.1,88.3c-0.3,0-0.4-0.1-0.4-0.1c0-0.1-0.1-0.2-0.1-0.8c0-0.3,0-1,0-2.3c0-0.4,0-0.9,0.1-1.5c0-0.6,0-1.1,0-1.4
	c0-0.4-0.1-0.6-0.5-0.6c-0.1,0-0.3,0-0.6,0.1c-0.2,0.1-0.5,0.1-0.8,0.2c-0.4,0.2-0.6,0.3-0.6,0.6c0,0.1,0.1,0.3,0.4,0.4
	c0.1,0,0.3,0.1,0.4,0.1c0,0,0.1,0.1,0.1,0.4c0,0.2,0.1,0.7,0.1,1.4V86c0,0.5,0,0.8-0.1,1c-0.1,0.2-0.1,0.4-0.2,0.5
	c-0.5,0.6-1.1,1-1.8,1c-0.7,0-1.2-0.3-1.4-0.9c-0.1-0.2-0.1-0.4-0.2-0.8c0-0.3,0-0.8,0-1.5V85c0-0.4,0-0.9,0.1-1.4
	c0-0.7,0.1-1.1,0.1-1.3c0-0.4-0.1-0.6-0.5-0.6c-0.1,0-0.3,0-0.6,0.1c-0.2,0.1-0.5,0.1-0.8,0.2c-0.3,0.1-0.6,0.3-0.6,0.6
	c0,0.1,0.1,0.3,0.4,0.4c0.2,0,0.3,0,0.4,0.1c0,0,0.1,0.1,0.1,0.4c0,0.2,0,0.7,0,1.4V86c0,2.5,0.8,3.6,2.7,3.6c0.8,0,1.4-0.3,1.9-0.8
	c0.1-0.1,0.2-0.2,0.3-0.3c0.1-0.2,0.2-0.2,0.2-0.2c0,0,0,0,0,0.1V89c0,0.4,0.1,0.6,0.4,0.6c0.4,0,0.8-0.1,1.2-0.3
	c0.4-0.2,0.7-0.4,0.7-0.6C287.6,88.6,287.5,88.4,287.1,88.3"/>
<path d="M289.8,85.4h4.6c0.3,0,0.5-0.1,0.6-0.2c0.1-0.1,0.1-0.3,0.1-0.6c0-0.9-0.3-1.6-0.8-2.2c-0.6-0.5-1.3-0.8-2.3-0.8
	c-1.1,0-2,0.4-2.7,1.2c-0.7,0.8-1.1,1.8-1.1,2.9c0,1.1,0.3,2,1,2.8c0.7,0.7,1.6,1.1,2.6,1.1c1.1,0,2.1-0.4,2.8-1.3
	c0.3-0.3,0.4-0.6,0.4-0.8c0-0.2-0.2-0.3-0.4-0.3c-0.2,0-0.4,0.1-0.6,0.4c-0.2,0.2-0.3,0.4-0.5,0.5c-0.4,0.4-1,0.5-1.5,0.5
	c-0.7,0-1.3-0.3-1.8-0.8c-0.5-0.6-0.7-1.3-0.7-2.2C289.7,85.4,289.7,85.4,289.8,85.4 M289.7,84.5c0-0.3,0.2-0.8,0.5-1.2
	c0.4-0.5,1-0.8,1.6-0.8c0.6,0,1,0.2,1.4,0.5c0.4,0.3,0.5,0.8,0.5,1.3c0,0.2,0,0.2-0.2,0.2h-3.7C289.7,84.6,289.7,84.6,289.7,84.5"/>
<path d="M303.6,88.6c-0.1,0-0.2-0.1-0.2-0.1c-0.2-0.1-0.2-0.2-0.2-0.6c0-0.6,0-1.2,0-1.7c0-0.1,0-0.3,0-0.6c0-0.2,0-0.4,0-0.5
	c0-0.6,0-1-0.1-1.3c-0.3-1.5-1.2-2.2-2.6-2.2c-0.8,0-1.4,0.3-1.9,0.8c-0.1,0.1-0.2,0.2-0.3,0.3C298.1,83,298,83,298,83
	c0,0,0,0,0-0.1v-0.6c0-0.4-0.1-0.6-0.4-0.6c-0.4,0-0.8,0.1-1.2,0.3c-0.4,0.2-0.7,0.4-0.7,0.6c0,0.1,0.1,0.3,0.5,0.4
	c0.3,0,0.4,0.1,0.4,0.1c0.1,0.1,0.2,0.5,0.2,2.4c0,1.2,0,1.8,0,2.1c0,0.5-0.1,0.7-0.1,0.8c0,0.1-0.2,0.1-0.4,0.2
	c-0.3,0.1-0.4,0.3-0.4,0.4c0,0.4,0.5,0.5,1.6,0.5c1.1,0,1.5-0.2,1.5-0.5c0-0.1-0.1-0.3-0.4-0.4c-0.2-0.1-0.3-0.1-0.4-0.2
	c0-0.1-0.1-0.3-0.1-0.7c0-0.4,0-1,0-2.2V85c0-0.6,0.1-0.9,0.3-1.2c0.5-0.6,1.1-1,1.9-1c0.6,0,1,0.2,1.2,0.5c0.2,0.4,0.4,1,0.4,1.9
	c0,1.4,0,2.2,0,2.5c0,0.1,0,0.5-0.1,0.6c0,0.1-0.2,0.1-0.4,0.2c-0.3,0.1-0.4,0.3-0.4,0.4c0,0.5,0.7,0.5,1.5,0.5
	c0.9,0,1.5-0.1,1.5-0.5C304,88.7,303.7,88.6,303.6,88.6"/>
<path d="M308.5,81.6c-1.1,0-2.1,0.4-2.9,1.2c-0.8,0.8-1.1,1.8-1.1,2.9c0,1.1,0.4,2,1.1,2.8c0.7,0.7,1.6,1.1,2.7,1.1
	c1.1,0,2.1-0.4,2.8-1.2c0.7-0.8,1.1-1.8,1.1-3c0-1.1-0.4-2-1-2.7C310.5,82,309.6,81.6,308.5,81.6 M306.6,83.3
	c0.4-0.5,0.9-0.8,1.6-0.8c0.7,0,1.3,0.3,1.8,0.9c0.5,0.6,0.7,1.4,0.7,2.4c0,0.9-0.2,1.6-0.6,2.2c-0.4,0.5-1,0.8-1.7,0.8
	c-0.7,0-1.3-0.3-1.7-1c-0.5-0.7-0.7-1.5-0.7-2.5C306,84.5,306.2,83.8,306.6,83.3"/>
<path d="M316.8,85.2l-0.6-0.2c-1.2-0.5-1.8-1-1.8-1.5c0-0.3,0.1-0.5,0.3-0.7c0.2-0.2,0.5-0.3,0.8-0.3c0.3,0,0.6,0.1,0.7,0.2
	c0.2,0.1,0.3,0.3,0.5,0.7l0.1,0.1c0.1,0.3,0.3,0.5,0.5,0.5c0.3,0,0.5-0.2,0.5-0.6c0-0.4-0.1-0.8-0.3-1.1c-0.2-0.4-0.4-0.5-0.6-0.5
	c-0.1,0-0.2,0-0.4,0.2c-0.4-0.1-0.7-0.2-1-0.2c-0.7,0-1.3,0.2-1.8,0.6c-0.5,0.4-0.7,0.9-0.7,1.6c0,0.5,0.2,1.1,0.6,1.4
	c0.3,0.3,0.9,0.6,1.6,0.9c0.3,0.1,0.5,0.2,0.6,0.3c0.7,0.3,1,0.7,1,1.2c0,0.3-0.1,0.6-0.4,0.8c-0.3,0.2-0.6,0.3-1,0.3
	c-0.6,0-1.1-0.3-1.4-0.8l-0.1-0.3c-0.2-0.3-0.4-0.5-0.5-0.5c-0.3,0-0.5,0.2-0.5,0.6c0,0.4,0.1,0.8,0.2,1.1c0.2,0.4,0.3,0.6,0.5,0.6
	c0.1,0,0.1,0,0.3-0.1c0.1-0.1,0.2-0.1,0.2-0.1c0,0,0.1,0,0.5,0.1c0.3,0.1,0.6,0.1,0.8,0.1c0.8,0,1.4-0.2,1.9-0.6
	c0.5-0.4,0.7-1,0.7-1.7C318.1,86.4,317.6,85.6,316.8,85.2"/>
<path d="M334.5,80.1c0.5,0,0.9-0.4,0.9-0.9c0-0.5-0.3-0.8-0.8-0.8c-0.5,0-0.9,0.4-0.9,0.9C333.7,79.8,334,80.1,334.5,80.1"/>
<path d="M335.7,88.6c-0.1,0-0.3-0.1-0.4-0.1c0,0-0.1-0.1-0.1-0.4c0-0.2,0-0.7,0-1.3c0-1.5,0-2.8,0.1-4.1c0-0.2,0-0.4,0-0.4
	c0-0.4-0.1-0.6-0.4-0.6c-0.3,0-0.8,0.1-1.3,0.3c-0.4,0.2-0.6,0.3-0.6,0.6c0,0.1,0.1,0.3,0.5,0.4c0.3,0,0.4,0.1,0.4,0.1
	c0,0,0.1,0.2,0.1,0.9c0,0.5,0,1.4,0,2.5c0,0.7,0,1.2-0.1,1.5c0,0.3-0.1,0.4-0.1,0.5c-0.1,0.1-0.3,0.1-0.4,0.1
	c-0.2,0.1-0.3,0.1-0.3,0.2c0-0.1-0.2-0.3-0.5-0.4c-0.2-0.1-0.2-0.1-0.3-0.1c-0.2-0.1-0.4-0.4-0.5-0.8c0-0.1,0-0.1-0.1-0.2l-0.1-0.3
	c-0.2-0.6-0.6-1.4-1-2.4c-1-2.6-1.8-4.5-2.3-5.7c-0.2-0.3-0.3-0.5-0.4-0.6c-0.1-0.1-0.2-0.1-0.4-0.1c-0.3,0-0.5,0.1-0.6,0.4l0,0.1
	c-0.1,0.3-0.7,1.8-1.9,4.7c-0.5,1.2-1,2.3-1.3,3.2l0,0.1c-0.3,0.8-0.6,1.3-0.8,1.5c-0.1,0-0.2,0.1-0.3,0.1c-0.4,0.1-0.5,0.3-0.5,0.4
	c0,0.5,0.7,0.6,1.8,0.6c1.3,0,1.8-0.2,1.8-0.6c0-0.2-0.2-0.3-0.5-0.5l-0.1,0c-0.1,0-0.1,0-0.1-0.1c-0.3-0.1-0.4-0.2-0.4-0.4
	c0-0.1,0.1-0.4,0.3-1l0.2-0.4c0.1-0.2,0.1-0.3,0.2-0.4l0,0c0-0.1,0.1-0.1,0.1-0.2c0,0,0.1-0.1,0.3-0.1c0.2,0,0.5,0,1.1,0h1.6
	c0.5,0,0.9,0,1.1,0.1c0.2,0,0.3,0.1,0.3,0.2c0.2,0.4,0.3,0.7,0.5,1.1c0.1,0.5,0.2,0.7,0.2,0.8c0,0.2-0.1,0.4-0.4,0.4
	c0,0-0.1,0-0.2,0.1c-0.4,0.1-0.6,0.3-0.6,0.5c0,0.4,0.6,0.6,2,0.6c1.2,0,1.8-0.1,1.9-0.4c0.1,0.3,0.5,0.4,1.5,0.4
	c1,0,1.5-0.2,1.5-0.5C336.1,88.8,336,88.7,335.7,88.6 M329.3,84.8c-0.2,0-0.5,0-0.7,0c-0.3,0-0.7,0-1.3,0c-0.5,0-0.9,0-1.1,0l-0.5,0
	c0.9-2.2,1.4-3.5,1.8-4.2h0c0.2,0.4,0.4,0.9,0.8,1.7C328.6,83,328.9,83.9,329.3,84.8"/>
<path d="M341,81.6c-0.7,0-1.4,0.5-2,1.4c-0.1-1.1-0.2-1.4-0.6-1.4c-0.2,0-0.8,0.2-1.2,0.4c-0.4,0.2-0.6,0.3-0.6,0.6
	c0,0.2,0.2,0.4,0.4,0.4h0.1c0.3,0,0.4,0.1,0.4,0.1c0,0,0.1,0.1,0.1,0.4c0.1,0.5,0.1,1.6,0.1,3.3c0,0.6,0,1-0.1,1.3
	c0,0.3-0.1,0.4-0.1,0.4c-0.1,0.1-0.3,0.1-0.3,0.1c-0.2,0.1-0.4,0.2-0.4,0.4c0,0.4,0.6,0.5,1.6,0.5c1.3,0,1.8-0.2,1.8-0.5
	c0-0.2-0.2-0.3-0.4-0.4l0,0c0,0-0.1,0-0.2,0c-0.2,0-0.4-0.1-0.4-0.2c0,0-0.1-0.1-0.1-0.7c0-0.4,0-1.1,0-1.9c0-1.2,0.1-1.9,0.3-2.3
	c0.2-0.3,0.5-0.6,0.9-0.7c0.1,0.4,0.4,0.7,0.8,0.7c0.5,0,0.9-0.4,0.9-0.9C342,82,341.6,81.6,341,81.6"/>
<path d="M343.8,85.4h4.6c0.3,0,0.5-0.1,0.6-0.2c0.1-0.1,0.1-0.3,0.1-0.6c0-0.9-0.3-1.6-0.8-2.2c-0.6-0.5-1.3-0.8-2.3-0.8
	c-1.1,0-2,0.4-2.7,1.2c-0.7,0.8-1.1,1.8-1.1,2.9c0,1.1,0.3,2,1,2.8c0.7,0.7,1.6,1.1,2.6,1.1c1.1,0,2.1-0.4,2.8-1.3
	c0.3-0.3,0.4-0.6,0.4-0.8c0-0.2-0.2-0.4-0.4-0.4c-0.2,0-0.4,0.1-0.6,0.4c-0.2,0.2-0.3,0.4-0.5,0.5c-0.4,0.4-1,0.5-1.5,0.5
	c-0.7,0-1.3-0.3-1.8-0.8c-0.5-0.6-0.7-1.3-0.7-2.2C343.7,85.4,343.7,85.4,343.8,85.4 M344.2,83.3c0.4-0.5,1-0.8,1.6-0.8
	c0.6,0,1,0.2,1.4,0.5c0.4,0.3,0.5,0.8,0.5,1.3c0,0.2,0,0.2-0.2,0.2h-3.7c-0.2,0-0.2,0-0.2-0.1C343.7,84.1,343.9,83.6,344.2,83.3"/>
<path d="M353.6,85.2l-0.6-0.2c-1.2-0.5-1.8-1-1.8-1.5c0-0.3,0.1-0.5,0.3-0.7c0.2-0.2,0.5-0.3,0.8-0.3c0.3,0,0.6,0.1,0.7,0.2
	c0.2,0.1,0.3,0.3,0.5,0.7l0.1,0.1c0.1,0.3,0.3,0.5,0.5,0.5c0.3,0,0.5-0.2,0.5-0.6c0-0.4-0.1-0.8-0.3-1.1c-0.2-0.4-0.4-0.5-0.6-0.5
	c-0.1,0-0.2,0-0.4,0.2c-0.4-0.1-0.7-0.2-1-0.2c-0.7,0-1.3,0.2-1.8,0.6c-0.5,0.4-0.7,0.9-0.7,1.6c0,0.5,0.2,1.1,0.6,1.4
	c0.3,0.3,0.9,0.6,1.6,0.9c0.3,0.1,0.5,0.2,0.6,0.3c0.7,0.3,1,0.7,1,1.2c0,0.3-0.1,0.6-0.4,0.8c-0.3,0.2-0.6,0.3-1,0.3
	c-0.6,0-1.1-0.3-1.4-0.8l-0.1-0.3c-0.2-0.3-0.4-0.5-0.5-0.5c-0.3,0-0.5,0.2-0.5,0.6c0,0.4,0.1,0.8,0.2,1.1c0.2,0.4,0.3,0.6,0.5,0.6
	c0.1,0,0.1,0,0.3-0.1c0.1-0.1,0.2-0.1,0.2-0.1c0,0,0.1,0,0.5,0.1c0.3,0.1,0.6,0.1,0.8,0.1c0.8,0,1.4-0.2,1.9-0.6
	c0.5-0.4,0.7-1,0.7-1.7C355,86.4,354.5,85.6,353.6,85.2"/>
<path class="st0" d="M83.5,25.1C78.6,18.9,71.8,14,64.1,12c-6.6-1.7-13.7-1.1-19.9,1.6c-5.4,2.3-10,6.1-13.9,10.4
	c-8.4,10-12.8,23-13.1,36c-0.2,1.4-0.2,2.9,0,4.3c0.3,11.1,3.4,22.4,9.7,31.6c-2.1-4.6-3.6-9.4-4.4-14.3c1.3-0.8,2.5-1.7,3.9-2.5
	c-0.7-6.6,1.3-13.3,5.4-18.6c6-7.8,16-12.2,25.7-12.1c8.2,0.4,16.3,3.8,22,9.8c4.2,4.5,7,10.5,7.3,16.7c0.4,1.8-0.2,3.6-0.2,5.5
	c1.4,0.9,2.7,1.9,4,2.8c-0.7,3.9-2,7.8-3.5,11.5c5.8-9.4,8.7-20.5,8.8-31.5C96,49.6,92.1,35.7,83.5,25.1 M66.5,48.9
	c-7.7-2.6-16.5-2-23.8,1.5c-0.2-0.1-0.5-0.4-0.6-0.5c4.1-3.5,9-6.8,14.5-6.9c4.8,0.2,9.2,2.7,12.9,5.6c0.5,0.5,1.3,0.9,1.3,1.8
	C69.2,50,67.9,49.3,66.5,48.9 M60.7,42.3c-2.8-0.8-5.8-0.8-8.6,0.1c0.2-2.5,1.3-5.4,3.9-6.1V24.3h0.9v11.9
	C59.5,37,60.6,39.9,60.7,42.3 M62.7,19.5C57,18.4,51,18.8,45.6,20.7c-4.3,1.4-8.2,3.6-12.1,5.7c5.1-5.7,12.1-9.8,19.7-10.8
	c5.6-0.8,11.3,0.7,16.3,3.2c3.7,2,7.1,4.5,9.9,7.6C74.3,23.1,68.7,20.5,62.7,19.5"/>
<path class="st0" d="M37.4,61.6c1.2-0.4,2.8,0.9,2.2,2.2c-1.1,3.3-2.1,6.6-2.5,10.1c-3.5,1.4-6.9,2.9-10.2,4.8
	c0-3.6,1.1-7.1,2.5-10.4c0.6-1.3,1.1-2.6,2.1-3.6C33.2,63.1,35.2,61.9,37.4,61.6"/>
<path class="st0" d="M73.2,62.3c0.4-0.6,1.2-0.8,1.9-0.8c2.3,0.4,4.4,1.6,6,3.1c1.3,1.4,1.8,3.2,2.6,4.8c1.3,3.3,2.1,6.9,2,10.4
	c-3.2-2-6.5-3.8-10-5.2c-0.5-3.3-1.2-6.6-2.3-9.8C73.1,64.1,72.8,63.2,73.2,62.3"/>
<path class="st0" d="M52,76.2c9.1-1.2,18.2,2.3,25.2,7.9c1.8,1.5,3.6,3,5.1,4.8C77,85.3,71.2,82.3,65,80.9c-4.3-1-8.8-1.4-13.2-1
	c-7.5,0.7-14.5,3.8-21.2,7.3C36.3,81.3,43.9,77.2,52,76.2"/>
<path class="st0" d="M51,87.3c4.5-1,9.2-0.6,13.6,1c4.9,1.8,9.4,4.9,12.8,8.8c-4.4-3-9.3-5.5-14.6-6.6c-3.4-0.7-6.8-1.1-10.3-0.6
	C46.6,90.6,41.1,93,36,95.8C40.1,91.6,45.3,88.6,51,87.3"/>
<path class="st0" d="M39.9,103.8c4.4-4.4,10.4-7.2,16.6-7.2c6.3,0.3,12.3,3.6,16.5,8.3c-4.8-3.4-10.5-5.7-16.5-5.9
	C50.7,98.8,45.1,101.2,39.9,103.8"/>
<path class="st0" d="M63.8,71.1c-0.1-2.4,0-11.9-1.7-13.5c-1.9-2.2-5.1-2.7-7.8-2.1c-2,0.5-4,1.9-4.5,4.1c-0.4,3.8-0.5,7.6-0.7,11.4
	h0l0,0h0c1.7-0.3,4.1-0.4,6.7-0.4C59.2,70.5,62.1,70.7,63.8,71.1L63.8,71.1C63.8,71.1,63.8,71.1,63.8,71.1"/>
</svg>
