<svg width="124" height="31" viewBox="0 0 124 31" fill="none" xmlns="http://www.w3.org/2000/svg">
<path d="M12.7031 23.1562L12.5938 24H0.71875L0.828125 23.1562H12.7031ZM5.1875 1.25L1.26562 24H0.40625L4.32812 1.25H5.1875ZM22.0938 24.3125C20.9583 24.3125 19.9792 24.0677 19.1562 23.5781C18.3438 23.0781 17.6875 22.4219 17.1875 21.6094C16.6979 20.7865 16.3646 19.8802 16.1875 18.8906C16.0208 17.901 16.0052 16.9062 16.1406 15.9062L16.25 15.2188C16.4062 14.2083 16.7083 13.2083 17.1562 12.2188C17.6042 11.2188 18.1771 10.3125 18.875 9.5C19.5729 8.67708 20.3854 8.02083 21.3125 7.53125C22.2396 7.03125 23.2656 6.78125 24.3906 6.78125C25.401 6.78125 26.2604 6.98958 26.9688 7.40625C27.6771 7.8125 28.2448 8.36458 28.6719 9.0625C29.099 9.75 29.3854 10.5208 29.5312 11.375C29.6875 12.2292 29.7031 13.1042 29.5781 14L29.4531 14.9844H16.8281L16.9375 14.1406H28.6719L28.7188 13.9375C28.8958 12.9375 28.8542 11.9531 28.5938 10.9844C28.3333 10.0156 27.8542 9.21875 27.1562 8.59375C26.4583 7.95833 25.5365 7.63542 24.3906 7.625C23.3802 7.625 22.4583 7.84896 21.625 8.29688C20.8021 8.73438 20.0781 9.32812 19.4531 10.0781C18.8385 10.8177 18.3281 11.6354 17.9219 12.5312C17.526 13.4271 17.25 14.3229 17.0938 15.2188L16.9844 15.9062C16.849 16.7812 16.849 17.6615 16.9844 18.5469C17.1198 19.4323 17.3958 20.25 17.8125 21C18.2292 21.7396 18.7917 22.3385 19.5 22.7969C20.2083 23.2448 21.0677 23.474 22.0781 23.4844C23.1302 23.4948 24.0885 23.2969 24.9531 22.8906C25.8177 22.474 26.6146 21.901 27.3438 21.1719L27.9062 21.6094C27.4062 22.1823 26.8542 22.6719 26.25 23.0781C25.6458 23.4844 24.9948 23.7917 24.2969 24C23.599 24.2083 22.8646 24.3125 22.0938 24.3125ZM45.5312 7.09375H46.3906L43.5312 23.7656C43.3021 25.026 42.8698 26.1927 42.2344 27.2656C41.599 28.3385 40.7708 29.1979 39.75 29.8438C38.7292 30.4896 37.5365 30.8125 36.1719 30.8125C35.4531 30.8125 34.7865 30.6979 34.1719 30.4688C33.5573 30.2396 33 29.9115 32.5 29.4844C32 29.0573 31.5677 28.5417 31.2031 27.9375L31.8438 27.4062C32.3333 28.1979 32.9271 28.8229 33.625 29.2812C34.3229 29.75 35.1562 29.9844 36.125 29.9844C37.3438 29.9844 38.401 29.6979 39.2969 29.125C40.2031 28.5625 40.9375 27.8073 41.5 26.8594C42.0625 25.9219 42.4479 24.8906 42.6562 23.7656L44.9062 10.8125L45.5312 7.09375ZM32.3281 15.7031L32.375 15.375C32.5521 14.375 32.8281 13.3698 33.2031 12.3594C33.5885 11.349 34.0885 10.4219 34.7031 9.57812C35.3177 8.73438 36.0625 8.05729 36.9375 7.54688C37.8125 7.03646 38.8281 6.78125 39.9844 6.78125C40.7552 6.78125 41.474 6.92188 42.1406 7.20312C42.8177 7.48438 43.4062 7.88021 43.9062 8.39062C44.4062 8.89062 44.7917 9.47917 45.0625 10.1562C45.3333 10.8333 45.4531 11.5677 45.4219 12.3594L44.25 19.25C44.0521 20.0208 43.7083 20.7188 43.2188 21.3438C42.7292 21.9583 42.151 22.4896 41.4844 22.9375C40.8281 23.375 40.1198 23.7135 39.3594 23.9531C38.599 24.1927 37.8385 24.3125 37.0781 24.3125C35.9115 24.3125 34.974 24.0417 34.2656 23.5C33.5677 22.9479 33.0521 22.2396 32.7188 21.375C32.3958 20.5 32.2135 19.5625 32.1719 18.5625C32.1302 17.5625 32.1823 16.6094 32.3281 15.7031ZM33.25 15.375L33.1875 15.7031C33.0521 16.4844 32.9844 17.3229 32.9844 18.2188C32.9844 19.1146 33.1042 19.9583 33.3438 20.75C33.5938 21.5417 34.0104 22.1927 34.5938 22.7031C35.1875 23.2031 36.0052 23.4583 37.0469 23.4688C37.9948 23.4688 38.9271 23.2812 39.8438 22.9062C40.7604 22.5312 41.5625 22 42.25 21.3125C42.9479 20.6146 43.4375 19.7969 43.7188 18.8594L44.7812 12.9219C44.8333 12.1823 44.75 11.4948 44.5312 10.8594C44.3229 10.2135 44 9.65104 43.5625 9.17188C43.1354 8.68229 42.6146 8.30208 42 8.03125C41.3958 7.76042 40.724 7.625 39.9844 7.625C38.9531 7.625 38.0469 7.85938 37.2656 8.32812C36.4948 8.79688 35.8385 9.41667 35.2969 10.1875C34.7656 10.9583 34.3281 11.7969 33.9844 12.7031C33.651 13.6094 33.4062 14.5 33.25 15.375ZM52.6562 7.09375L49.75 24H48.9062L51.8125 7.09375H52.6562ZM52.3125 1.78125C52.3438 1.57292 52.4531 1.38021 52.6406 1.20312C52.8385 1.02604 53.0469 0.9375 53.2656 0.9375C53.5052 0.9375 53.6979 1.03125 53.8438 1.21875C54 1.40625 54.0573 1.61458 54.0156 1.84375C53.9844 2.05208 53.8698 2.24479 53.6719 2.42188C53.474 2.58854 53.2656 2.67188 53.0469 2.67188C52.8177 2.67188 52.625 2.58333 52.4688 2.40625C52.3229 2.21875 52.2708 2.01042 52.3125 1.78125ZM66.0156 19.8594C66.1823 19.0052 66.0417 18.3021 65.5938 17.75C65.1458 17.1875 64.5573 16.7448 63.8281 16.4219C63.1094 16.099 62.4115 15.8542 61.7344 15.6875C61.1198 15.5312 60.5 15.349 59.875 15.1406C59.25 14.9219 58.6875 14.6458 58.1875 14.3125C57.6875 13.9688 57.3073 13.5365 57.0469 13.0156C56.7969 12.4844 56.7292 11.8281 56.8438 11.0469C56.9479 10.3177 57.1979 9.6875 57.5938 9.15625C57.9896 8.625 58.474 8.1875 59.0469 7.84375C59.6302 7.48958 60.2604 7.22396 60.9375 7.04688C61.6146 6.86979 62.2812 6.78125 62.9375 6.78125C63.9375 6.78125 64.849 6.95833 65.6719 7.3125C66.5052 7.66667 67.151 8.20312 67.6094 8.92188C68.0781 9.63021 68.2552 10.526 68.1406 11.6094H67.2969C67.3906 10.724 67.2396 9.98958 66.8438 9.40625C66.4479 8.8125 65.901 8.36979 65.2031 8.07812C64.5052 7.77604 63.7552 7.625 62.9531 7.625C62.224 7.625 61.4844 7.74479 60.7344 7.98438C59.9844 8.21354 59.3281 8.57812 58.7656 9.07812C58.2031 9.57812 57.8438 10.224 57.6875 11.0156C57.5625 11.6719 57.6146 12.224 57.8438 12.6719C58.0729 13.1198 58.4115 13.4896 58.8594 13.7812C59.3177 14.0625 59.8229 14.2969 60.375 14.4844C60.9271 14.6615 61.4583 14.8177 61.9688 14.9531C62.8229 15.1719 63.651 15.4688 64.4531 15.8438C65.2656 16.2083 65.9062 16.7135 66.375 17.3594C66.8542 17.9948 67.0156 18.8333 66.8594 19.875C66.7448 20.6458 66.4792 21.3125 66.0625 21.875C65.6562 22.4271 65.1458 22.8854 64.5312 23.25C63.9271 23.6042 63.2708 23.8698 62.5625 24.0469C61.8646 24.224 61.1667 24.3125 60.4688 24.3125C59.5208 24.3125 58.6042 24.1562 57.7188 23.8438C56.8438 23.5208 56.1354 23.0208 55.5938 22.3438C55.0625 21.6562 54.849 20.776 54.9531 19.7031H55.7812C55.7396 20.6198 55.9375 21.3594 56.375 21.9219C56.8229 22.474 57.4115 22.8698 58.1406 23.1094C58.8698 23.349 59.6406 23.4688 60.4531 23.4688C61.2031 23.4583 61.974 23.3281 62.7656 23.0781C63.5677 22.8177 64.2708 22.4271 64.875 21.9062C65.4792 21.375 65.8594 20.6927 66.0156 19.8594ZM82.125 5.375L72.9688 24H67.9375L80.0938 1.25H83.3125L82.125 5.375ZM83.9375 24L81.1562 4.89062L81.3281 1.25H84.3438L88.6406 24H83.9375ZM85.0938 15.5312L84.4531 19.2031H72.75L73.3906 15.5312H85.0938ZM96.7188 10.5938L93.2656 30.5H88.8594L92.9219 7.09375H96.9844L96.7188 10.5938ZM106.25 15.2656L106.203 15.5938C106.078 16.6146 105.839 17.6458 105.484 18.6875C105.141 19.7292 104.667 20.6823 104.062 21.5469C103.458 22.401 102.714 23.0885 101.828 23.6094C100.943 24.1198 99.901 24.3594 98.7031 24.3281C97.651 24.2969 96.776 24.0208 96.0781 23.5C95.3802 22.9792 94.8333 22.3125 94.4375 21.5C94.0417 20.6771 93.7656 19.7917 93.6094 18.8438C93.4531 17.8958 93.3906 16.9896 93.4219 16.125L93.5312 15.25C93.6875 14.3021 93.9583 13.3281 94.3438 12.3281C94.7292 11.3177 95.2292 10.3906 95.8438 9.54688C96.4583 8.69271 97.1927 8.01042 98.0469 7.5C98.901 6.97917 99.8854 6.73438 101 6.76562C102.156 6.79688 103.099 7.07292 103.828 7.59375C104.568 8.11458 105.13 8.79167 105.516 9.625C105.901 10.4583 106.141 11.3698 106.234 12.3594C106.339 13.3385 106.344 14.3073 106.25 15.2656ZM101.812 15.5781L101.859 15.25C101.901 14.7917 101.922 14.2865 101.922 13.7344C101.922 13.1719 101.859 12.6354 101.734 12.125C101.609 11.6146 101.38 11.1875 101.047 10.8438C100.714 10.5 100.234 10.3177 99.6094 10.2969C98.974 10.2656 98.4167 10.3646 97.9375 10.5938C97.4583 10.8229 97.0521 11.1458 96.7188 11.5625C96.3958 11.9688 96.1302 12.4323 95.9219 12.9531C95.7135 13.474 95.5625 14.0104 95.4688 14.5625L95.1562 16.75C95.1042 17.3854 95.1458 18.0156 95.2812 18.6406C95.4167 19.2552 95.6823 19.7656 96.0781 20.1719C96.4844 20.5781 97.0677 20.7917 97.8281 20.8125C98.5156 20.8229 99.099 20.6667 99.5781 20.3438C100.057 20.0208 100.448 19.5938 100.75 19.0625C101.062 18.5208 101.302 17.9427 101.469 17.3281C101.635 16.7135 101.75 16.1302 101.812 15.5781ZM114.188 10.5938L110.734 30.5H106.328L110.391 7.09375H114.453L114.188 10.5938ZM123.719 15.2656L123.672 15.5938C123.547 16.6146 123.307 17.6458 122.953 18.6875C122.609 19.7292 122.135 20.6823 121.531 21.5469C120.927 22.401 120.182 23.0885 119.297 23.6094C118.411 24.1198 117.37 24.3594 116.172 24.3281C115.12 24.2969 114.245 24.0208 113.547 23.5C112.849 22.9792 112.302 22.3125 111.906 21.5C111.51 20.6771 111.234 19.7917 111.078 18.8438C110.922 17.8958 110.859 16.9896 110.891 16.125L111 15.25C111.156 14.3021 111.427 13.3281 111.812 12.3281C112.198 11.3177 112.698 10.3906 113.312 9.54688C113.927 8.69271 114.661 8.01042 115.516 7.5C116.37 6.97917 117.354 6.73438 118.469 6.76562C119.625 6.79688 120.568 7.07292 121.297 7.59375C122.036 8.11458 122.599 8.79167 122.984 9.625C123.37 10.4583 123.609 11.3698 123.703 12.3594C123.807 13.3385 123.812 14.3073 123.719 15.2656ZM119.281 15.5781L119.328 15.25C119.37 14.7917 119.391 14.2865 119.391 13.7344C119.391 13.1719 119.328 12.6354 119.203 12.125C119.078 11.6146 118.849 11.1875 118.516 10.8438C118.182 10.5 117.703 10.3177 117.078 10.2969C116.443 10.2656 115.885 10.3646 115.406 10.5938C114.927 10.8229 114.521 11.1458 114.188 11.5625C113.865 11.9688 113.599 12.4323 113.391 12.9531C113.182 13.474 113.031 14.0104 112.938 14.5625L112.625 16.75C112.573 17.3854 112.615 18.0156 112.75 18.6406C112.885 19.2552 113.151 19.7656 113.547 20.1719C113.953 20.5781 114.536 20.7917 115.297 20.8125C115.984 20.8229 116.568 20.6667 117.047 20.3438C117.526 20.0208 117.917 19.5938 118.219 19.0625C118.531 18.5208 118.771 17.9427 118.938 17.3281C119.104 16.7135 119.219 16.1302 119.281 15.5781Z" fill="black"/>
</svg>
